<svg xmlns="http://www.w3.org/2000/svg" viewBox="0 0 512 512" style="height: 512px; width: 512px;">
    <defs>
        <style>
            path { display: none; }
            path:target { display: inline; }
<!--            path:has(:target){ display: inline; }-->
        </style>
    </defs>
    <path id="village"
          d="M256 19.27L25.637 249.638 19.27 256 32 268.73l6.363-6.367L256 44.727l217.637 217.636L480 268.73 492.73 256l-6.367-6.363zM96 48v107.273l64-64.002V48zm160 20.727l-192 192V486h64V320h96v166h224V260.727zM288 320h96v80h-96z"
          fill="currentColor" fill-opacity="1"/>
    <path id="city2"
          d="M208 22.81c-7.636 5.524-21.8 17.4-22.885 24.467 2.354 3.189 6.509 5.994 9.506 7.723h26.758c3.704-2.789 7.49-4.404 9.506-7.723-4.548-11.043-13.671-18-22.885-24.466zM199.027 73l-11.5 46h40.946l-11.5-46zM304 95.5c-16.026 21.362-36.332 41.846-53.34 60.555-9.89 10.88-18.644 21.146-24.672 30.187C219.961 195.283 217 203 217 208c0 2.1.177 4.112.488 6.045 45.098-28.37 81.492-70.44 97.188-105.135-3.697-4.426-7.289-8.895-10.676-13.41zm23.549 28.225c-19.266 37.932-56.702 78.784-103.026 107.134 4.64 6.573 10.415 11.207 14.297 13.85 51.58-32.122 85.075-67.773 103.881-104.494-5.012-5.389-10.115-10.892-15.152-16.49zM184.219 137l-7.928 87.21 7.197 10.798c14.228 21.341 31.924 36.144 47.512 49.674v-23.537c-10.063-6.447-32-23.84-32-53.145 0-11 5.04-21.283 12.012-31.742 5.927-8.891 13.506-17.983 21.853-27.34L231.781 137zm171.416 17.197c-18.216 32.977-47.038 64.315-87.65 92.803h31.363c37.622-26.747 59.943-50.916 68.187-79.42-4.276-4.942-7.984-9.125-11.9-13.383zM416 159.312c-5.616 7.226-11.495 13.663-17.357 19.52.883 1.39 1.744 2.78 2.543 4.168h36.427c-7.252-6.935-14.636-14.711-21.613-23.688zm-35.309 25.022c-9.618 22.973-27.145 43.002-51.459 62.666h36.293c4.093-2.312 25.475-15.387 25.475-39 0-5-2.96-12.717-8.988-21.758-.417-.625-.878-1.27-1.32-1.908zM87 198.852c-7.35 15.662-12.948 29.163-16.316 41.515-5.113 18.745-5.594 34.937-.026 54.633H87zm18 0V295h4.45c5.076-4.732 9.897-8.9 14.782-13.13 2.197-14.161 1.018-27.08-2.916-41.503-3.368-12.352-8.967-25.852-16.316-41.515zM408.32 201c.88 4.77.795 9.509.248 14h64.584c-5.438-5.327-10.16-9.445-15.427-14zm-346.054 9.043C48.463 223.324 25.822 239.658 25 256c0 23.613 21.382 36.688 25.475 39h1.615c-4.93-20.694-4.132-39.721 1.226-59.367 2.265-8.302 5.289-16.737 8.95-25.59zm67.468 0c3.661 8.853 6.685 17.288 8.95 25.59 2.67 9.79 4.206 19.429 4.466 29.195 6.809-6.576 13.539-13.79 19.786-22.01-9.535-13.514-21.75-22.732-33.202-32.775zM403.111 233c-2.678 5.38-6.028 10.04-9.53 14h92.763c.417-2.222.656-4.551.656-7 0-2.444-.381-4.733-1.12-7zM176 255.313c-15.3 19.685-32.57 33.644-46.074 45.46-7.88 6.896-14.44 13.092-18.694 18.834C106.98 325.35 105 330.25 105 336c0 23.613 21.382 36.688 25.475 39h89.144c1.898-23.248 4.381-44.682 11.381-66.104-2.715-2.604-5.702-5.301-8.926-8.123-13.504-11.816-30.773-25.775-46.074-45.46zM249 265v46h110v-46zm128 0v14h84.525c2.295-1.296 10.023-5.978 16.371-14zm0 32v19.723c2.677 3.802 3.82 8.068 5.166 13.164 1.74 6.588 3.111 14.563 4.281 23.668 2.744 25.07 4.156 47.613 4.983 69.445H455V297zM57 313v126h62v-49.855c-10.063-6.447-32-23.84-32-53.145 0-8.494 2.766-16.195 6.982-23zm188.361 16c-3.624 9.431-4.982 21.037-6.05 30h129.658c-1.956-10.184-2.672-21.785-6.201-30zm-7.845 48c-1.072 12.843-1.899 27.011-2.524 41.39-.698 16.054-1.138 31.855-1.424 46.393L259.902 377zm45.463 0L304 482.104 325.021 377zm65.119 0l26.484 88.283c-.25-14.696-.655-30.688-1.334-46.951-.6-14.36-1.405-28.51-2.473-41.332zM137 393v46h78v-46zm133.252 12.152L243.598 494h44.423zm67.496 0L319.978 494h44.424zM392.025 441c.552 19.69.777 37.785.881 53h89.56c-4.867-18.226-10.506-38.14-22.66-53zM51.803 457c-11.084 11.094-20.588 21.15-24.643 37h68.145c3.994-12.66 9.09-26.375 15.052-37zm80.488 0c-8.132 12.682-14.35 25.025-18.12 37h100.993c.105-11.106.267-23.524.576-37z"
          fill="currentColor" fill-opacity="1"/>
     <path 
           id="city"
           fill="currentColor" fill-opacity="1"
           d="M480 48c0-26.5-21.5-48-48-48H336c-26.5 0-48 21.5-48 48V96H224V24c0-13.3-10.7-24-24-24s-24 10.7-24 24V96H112V24c0-13.3-10.7-24-24-24S64 10.7 64 24V96H48C21.5 96 0 117.5 0 144v96V464c0 26.5 21.5 48 48 48H304h32 96H592c26.5 0 48-21.5 48-48V240c0-26.5-21.5-48-48-48H480V48zm96 320v32c0 8.8-7.2 16-16 16H528c-8.8 0-16-7.2-16-16V368c0-8.8 7.2-16 16-16h32c8.8 0 16 7.2 16 16zM240 416H208c-8.8 0-16-7.2-16-16V368c0-8.8 7.2-16 16-16h32c8.8 0 16 7.2 16 16v32c0 8.8-7.2 16-16 16zM128 400c0 8.8-7.2 16-16 16H80c-8.8 0-16-7.2-16-16V368c0-8.8 7.2-16 16-16h32c8.8 0 16 7.2 16 16v32zM560 256c8.8 0 16 7.2 16 16v32c0 8.8-7.2 16-16 16H528c-8.8 0-16-7.2-16-16V272c0-8.8 7.2-16 16-16h32zM256 176v32c0 8.8-7.2 16-16 16H208c-8.8 0-16-7.2-16-16V176c0-8.8 7.2-16 16-16h32c8.8 0 16 7.2 16 16zM112 160c8.8 0 16 7.2 16 16v32c0 8.8-7.2 16-16 16H80c-8.8 0-16-7.2-16-16V176c0-8.8 7.2-16 16-16h32zM256 304c0 8.8-7.2 16-16 16H208c-8.8 0-16-7.2-16-16V272c0-8.8 7.2-16 16-16h32c8.8 0 16 7.2 16 16v32zM112 320H80c-8.8 0-16-7.2-16-16V272c0-8.8 7.2-16 16-16h32c8.8 0 16 7.2 16 16v32c0 8.8-7.2 16-16 16zm304-48v32c0 8.8-7.2 16-16 16H368c-8.8 0-16-7.2-16-16V272c0-8.8 7.2-16 16-16h32c8.8 0 16 7.2 16 16zM400 64c8.8 0 16 7.2 16 16v32c0 8.8-7.2 16-16 16H368c-8.8 0-16-7.2-16-16V80c0-8.8 7.2-16 16-16h32zm16 112v32c0 8.8-7.2 16-16 16H368c-8.8 0-16-7.2-16-16V176c0-8.8 7.2-16 16-16h32c8.8 0 16 7.2 16 16z"/>
  
    <path id="flag"
          d="M375.7 20.11l-15.6 3.53c5.5 24.18 10.9 48.4 16.4 72.61-12.4-1.91-22.7-3.61-34-5.36l6.5 28.91c12.4 1.6 22.6 3.6 34 5.3l7.6 33.6c9.4 41.6 18.9 83.3 28.3 124.9-12.4-1.9-22.6-3.7-34-5.4l6.5 28.8c12.3 2.1 22.7 3.4 34 5.4 13.6 59.8 27 119.7 40.6 179.5l15.6-3.7c-37.4-162.5-73.8-328.9-105.9-468.09zM391.4 307c-12.9-1.9-23.9-3.4-33.7-4l7.4 32.9h.4c12.2 1.3 22.5 3.1 33.5 4.7zm-33.7-4l-6.7-29.5c-14.4-1.5-24.2-1.5-32.7.3l7 31.3c10.4-2.4 20.6-2.9 32.4-2.1zm-32.4 2.1c-10.3 2.4-19.7 6.3-30.1 12l7.4 32.7c9.8-5.2 20.1-11.2 29.8-13.4zm-30.1 12l-6.6-29.5c-7.8 4.8-17.2 11.1-28.6 18.8l6.5 28.9c10.8-7.4 20.2-13.4 28.7-18.2zm-28.7 18.2c-10.3 7-18.9 13-28.4 19.5l7.6 33.2c10-7.2 18.8-13.1 28.3-19.6zm-28.4 19.5l-6.5-28.9c-10.8 7.4-20.1 13.4-28.7 18.2l6.7 29.5c7.8-4.8 17.2-11.1 28.5-18.8zm-28.5 18.8c-12.3 7.5-21.2 11.7-29.7 13.7l7 31.2c10.4-2.4 19.8-6.4 30.1-12.1zm-29.7 13.7l-7.1-31.2c-10.3 2.3-20.5 2.8-32.3 2.1l6.7 29.5c14.3 1.5 24.1 1.5 32.7-.4zm-32.7.4c-9.1-.9-20.3-2.6-33.9-4.7l7.6 33.6s16 2.9 33.7 4zm-33.9-4.7l-6.5-28.8c-12.35-2-22.71-3.4-34.02-5.4l6.53 28.8c12.36 1.8 22.69 3.8 33.99 5.4zm-6.5-28.8c12.9 1.9 23.9 3.4 33.7 4l-7.5-32.9c-9.1-1-20.2-2.6-33.8-4.7zm-7.6-33.6l-6.52-28.9c-12.39-1.8-22.66-3.7-34.02-5.3l6.52 28.8c12.35 2 22.71 3.4 34.02 5.4zm-6.52-28.9c12.82 2 23.92 3.5 33.72 4.1l-7.5-32.9c-9.1-1-20.19-2.6-33.82-4.7zm-7.6-33.6l-6.52-28.9c-12.38-1.8-22.66-3.6-34.02-5.2l6.52 28.8c12.38 1.9 22.64 3.7 34.02 5.3zm-6.52-28.9c12.89 2 23.94 3.5 33.74 4.1l-7.5-33c-9.07-.9-20.22-2.5-33.84-4.7zm-7.6-33.6l-6.52-28.8c-12.33-2.1-22.71-3.3-34.02-5.3l6.52 28.9c12.36 1.9 22.66 3.6 34.02 5.2zm-6.52-28.8c12.89 2 23.93 3.5 33.72 4l-7.45-32.9c-11.72-2.1-24.9-3.3-33.87-4.7zm33.72 4l6.64 29.5c14.4 1.6 24.2 1.5 32.7-.4l-7-31.2c-10.4 2.4-20.6 2.9-32.34 2.1zm32.24-2.1c10.4-2.3 19.8-6.3 30.2-12l-7.5-32.9c-12.3 7.5-21.2 11.7-29.7 13.7zm-7-31.2c-.1 0-.1 0 0 0zm37.2 19.2l6.6 29.5c7.8-4.8 17.2-11 28.6-18.8l-6.6-28.8c-10.7 7.3-20.1 13.4-28.6 18.1zm28.6-18.1c10.3-7 18.9-13.1 28.5-19.4l-7.6-33.66c-10.4 7.05-19 13.01-28.5 19.56zm28.5-19.4l6.5 28.7c10.8-7.3 20.1-13.4 28.7-18.1l-6.7-29.5c-7.8 4.8-17.2 11.1-28.5 18.9zm28.5-18.9c12.3-7.55 21.2-11.74 29.7-13.68l-7-31.2c-11.1 3-21.8 7.36-30.1 11.95zm29.7-13.68l7.1 31.28c10.3-2.4 20.5-2.9 32.3-2.2l-6.7-29.53c-14.3-1.51-24.1-1.48-32.7.45zm32.7-.45c9.1.97 20.3 2.59 33.9 4.72l-7.6-33.59s-16.1-2.91-33.7-4.03zm6.7 29.53l7.4 32.8c9.2 1 20.3 2.6 33.9 4.8l-7.6-33.5c-12.9-2-23.9-3.5-33.7-4.1zm41.3 37.6l6.5 28.8c12.4 1.9 22.7 3.7 34.1 5.3l-6.6-28.8c-12.4-1.9-22.7-3.7-34-5.3zm6.5 28.8c-12.8-2-23.9-3.5-33.7-4l7.5 33c9.1.9 20.2 2.5 33.8 4.6zm7.6 33.6l6.6 28.9c12.4 2 22.7 3.4 34 5.3l-6.5-28.9c-12.4-1.8-22.7-3.7-34.1-5.3zm6.6 28.9c-12.9-2-24-3.5-33.8-4l7.5 32.9c9.1.8 20.2 2.6 33.9 4.7zm-33.8-4l-6.6-29.5c-14.4-1.6-24.2-1.5-32.7.4l7 31.1c10.3-2.3 20.6-2.8 32.3-2zm-32.3 2c-10.3 2.5-19.8 6.4-30.1 12l7.5 33c12.3-7.5 21.1-11.8 29.7-13.8zm-30.1 12l-6.7-29.5c-7.8 4.9-17.1 11-28.5 18.9l6.5 28.8c10.8-7.3 20.1-13.5 28.7-18.2zm-28.7 18.2c-10.5 6.9-18.7 13.2-28.4 19.5l7.6 33.6c10.4-7 19-13 28.4-19.5zM224 292.2l-6.5-28.8c-10.8 7.3-20.1 13.4-28.7 18.2l6.7 29.5c7.8-4.8 17.1-11.1 28.5-18.9zm-28.5 18.9c-12.3 7.5-21.2 11.7-29.7 13.6l7 31.4c10.3-2.4 19.8-6.4 30.1-12zm-29.7 13.6l-7.1-31.1c-10.3 2.3-20.5 2.8-32.2 2.1l6.5 29.5c14.4 1.5 24.2 1.5 32.8-.5zm-7.1-31.1c10.3-2.4 19.8-6.2 30.1-11.9l-7.4-33.1c-12.3 7.7-21.2 11.9-29.8 13.7zm-7.1-31.3l-7-31.2c-10.3 2.4-20.5 3-32.2 2.2l6.6 29.5c14.3 1.5 24.1 1.5 32.6-.5zm-7-31.2c10.3-2.3 19.7-6.3 30.1-12l-7.5-32.9c-12.3 7.6-21.1 11.9-29.7 13.7zm30.1-12l6.7 29.5c7.8-4.6 17.1-11 28.5-18.8l-6.5-28.8c-10.8 7.3-20.1 13.4-28.7 18.1zm28.7-18c10.2-7.2 18.9-13 28.4-19.5l-7.6-33.7c-10.3 7.2-19 13.1-28.4 19.6zm28.4-19.5l6.5 28.8c10.8-7.3 20.1-13.4 28.7-18.1l-6.7-29.5c-7.8 4.7-17.1 11-28.5 18.8zm28.5-18.9c12.3-7.6 21.2-11.8 29.7-13.6l-7-31.2c-10.3 2.2-19.8 6.1-30.1 11.8zm29.7-13.6l7.1 31.1c10.3-2.3 20.5-2.9 32.3-2.1l-6.7-29.5c-14.3-1.6-24.1-1.5-32.7.5zm7.1 31.1c-10.3 2.4-19.8 6.4-30.1 12l7.4 32.9c12.3-7.5 21.2-11.8 29.8-13.6zm-58.8 30.1c-10.3 7.1-19 13-28.4 19.5l7.6 33.7c10.3-7.2 18.9-13 28.4-19.5z"
          fill="currentColor" fill-opacity="1"/>

  <path id="road2"
          d="M168.4 29.55L24.38 477.6l15.24 4.8L183.6 34.45l-15.2-4.9zm175.2 0l-15.2 4.9 144 447.95 15.2-4.8-144-448.05zM248 32l-.8 20h17.6l-.8-20h-16zm-1.4 36l-.8 20h20.4l-.8-20h-18.8zm-1.5 36l-1.3 32h24.4l-1.3-32h-21.8zm-1.9 48l-2 48h29.6l-2-48h-25.6zm-2.8 68l-2.4 60h36l-2.4-60h-31.2zm-3.3 84l-2.9 72h43.6l-2.9-72h-37.8zm-4 100l-3.1 76h52l-3.1-76h-45.8z"
          fill="currentColor" fill-opacity="1"/>
  
  
  <path id="road" fill="currentColor" d="M256 32H181.2c-27.1 0-51.3 17.1-60.3 42.6L3.1 407.2C1.1 413 0 419.2 0 425.4C0 455.5 24.5 480 54.6 480H256V416c0-17.7 14.3-32 32-32s32 14.3 32 32v64H521.4c30.2 0 54.6-24.5 54.6-54.6c0-6.2-1.1-12.4-3.1-18.2L455.1 74.6C446 49.1 421.9 32 394.8 32H320V96c0 17.7-14.3 32-32 32s-32-14.3-32-32V32zm64 192v64c0 17.7-14.3 32-32 32s-32-14.3-32-32V224c0-17.7 14.3-32 32-32s32 14.3 32 32z" />
  
    <path id="trophy"
          d="M256.156 21.625c-45.605 0-86.876 2.852-117.22 7.563-15.17 2.355-27.554 5.11-36.874 8.53-4.66 1.71-8.568 3.515-11.968 6.094-3.238 2.457-6.65 6.36-6.97 11.75h-.75c0 10.08.362 20.022 1.064 29.813H57.53c-.12-7.952.003-15.922.376-23.875l-26.812-6.28C22.55 161.892 64.1 265.716 140.564 339.655l15.655-29.594c-4.198-3.477-8.25-7.063-12.157-10.75 5.846-6.112 12.293-11.76 19.28-16.843 13.468 13.172 28.182 23.565 43.813 30.655 22.114 17.744 8.053 29.368-23.5 36.25 58.863 10.6 38.948 62.267-14.125 92.313-2.14.27-4.256.523-6.28.812-12.047 1.718-21.876 3.71-29.406 6.25-3.765 1.27-6.958 2.6-9.906 4.656-2.95 2.055-6.626 5.705-6.626 11.406 0 5.702 3.677 9.32 6.626 11.375 2.948 2.055 6.14 3.387 9.906 4.657 7.53 2.54 17.36 4.532 29.406 6.25 24.094 3.436 56.784 5.53 92.906 5.53 36.123 0 68.812-2.094 92.906-5.53 12.048-1.718 21.877-3.71 29.407-6.25 3.764-1.27 6.957-2.602 9.905-4.656 2.948-2.055 6.625-5.674 6.625-11.375 0-5.702-3.677-9.352-6.625-11.407-2.948-2.055-6.14-3.387-9.906-4.656-7.53-2.54-17.36-4.532-29.408-6.25-2.013-.287-4.12-.544-6.25-.813-53.076-30.045-72.99-81.71-14.125-92.312-31.568-6.886-45.63-18.522-23.468-36.28 15.74-7.15 30.547-17.655 44.092-30.97 6.648 4.773 12.84 10.038 18.47 15.72-4.105 4.172-8.338 8.257-12.72 12.217l16.188 29.594c79.118-71.955 116.195-179.53 110.03-285l-27.342 7.97c.45 7.61.64 15.19.562 22.75h-25.594c.702-9.792 1.063-19.735 1.063-29.814h-.75c-.323-5.39-3.763-9.293-7-11.75-3.402-2.58-7.31-4.383-11.97-6.093-9.32-3.422-21.704-6.177-36.875-8.532-30.342-4.71-71.613-7.563-117.22-7.563zm0 18.688c44.822 0 85.426 2.854 114.344 7.343 14.46 2.245 26.06 4.932 33.313 7.594 1.04.382 1.775.75 2.625 1.125-.85.375-1.58.742-2.625 1.125-7.252 2.662-18.854 5.38-33.313 7.625-28.918 4.49-69.522 7.344-114.344 7.344-44.82 0-85.425-2.855-114.344-7.345-14.46-2.245-26.06-4.963-33.312-7.625-1.05-.386-1.77-.748-2.625-1.125.853-.376 1.577-.74 2.625-1.125 7.252-2.662 18.853-5.35 33.313-7.594 28.918-4.49 69.522-7.343 114.343-7.343zm-197.25 71.874H86.25c8.057 57.878 28.23 108.83 56.188 146.25-6.974 5.74-13.407 11.968-19.188 18.688-38.648-46.456-59.042-104.647-64.344-164.938zm367.188 0h27C447.51 171.82 425.336 228.34 388.03 275c-5.44-6.055-11.406-11.73-17.842-16.97 27.81-37.38 47.873-88.175 55.906-145.842z"
          fill="currentColor" fill-opacity="1"/>
    <path id="wheat"
          d="M98.344 16.688C79.692 43.785 68.498 69.01 65.5 89.56l23.938 39.157 28.624-33.47c.868-21.213-5.49-48.677-19.718-78.563zM472.5 19.625C444.04 36.055 423.112 54 411.562 71.25l4.75 45.688L456.563 99c9.89-18.777 15.938-46.29 15.938-79.375zm-91.75 27.28c-10.153 21.036-16.8 40.84-20.156 58.314l18.375 57.686 19.78-34.25-6.5-62.22h.03c-3.422-6.392-7.252-12.906-11.53-19.53zM27.25 80.782c-.125 23.364 2.393 44.102 6.875 61.314L75.5 186.25l3.125-39.406L46 93.47l.03-.032c-5.83-4.287-12.08-8.52-18.78-12.657zm132.844 10.532c-8.415 3.504-16.29 7.213-23.594 11.094l-39.25 45.97-3.094 39.374 50.438-39.094c6.712-15.904 12.09-35.263 15.5-57.344zm177.22 21.626c-24.024 58.09-16.16 97.86 7.873 108.5l21.157-36.625-19.594-61.438c-2.973-3.46-6.108-6.943-9.438-10.438zm146.03.218c-4.55-.028-8.97.084-13.28.28L414.935 138l-19.78 34.28 62.343-13.655c12.897-11.47 26.09-26.626 38.656-45.094-4.358-.216-8.64-.348-12.812-.374zm-226.094 8.72c-23.24 23.238-38.832 46.003-45.53 65.655l16.436 42.907 34.22-27.75c4.695-20.704 3.436-48.856-5.126-80.812zM16.406 159.06c3.28 62.77 27.482 95.31 53.75 94.594l3.344-42.22-44.063-47c-4.175-1.844-8.515-3.647-13.03-5.374zm143.22 11.375c-6.457 1.354-12.63 2.896-18.5 4.563l-48.97 37.938-3.312 41.75c26.492 7.51 57.16-20.567 70.78-84.25zm16.06 1.563c-4.36 22.935-5.65 43.762-4.374 61.5l32.688 51 10.22-38.188-22.407-58.437h.03c-4.952-5.28-10.318-10.592-16.155-15.875zm267.408 8.938l-60.563 13.218-20.936 36.25c20.682 18.195 60.438 6.035 100.125-45.625-6.413-1.552-12.62-2.823-18.626-3.843zm-138.688 25.53c-8.912 1.92-17.304 4.16-25.187 6.657l-46.97 38.03-10.22 38.19 56.69-29.283c9.493-14.424 18.323-32.49 25.686-53.593zm155.125 25.063c-25.85 20.324-44.046 41.06-53.03 59.782l11.22 44.532 37.28-23.47c7.126-19.99 9.236-48.088 4.53-80.843zm-123.342 8.595c-34.435 77.573-59.394 159.06-62.97 253.03h18.72c3.558-90.792 27.573-169.428 61.312-245.436l-17.063-7.595zm-185.375 6.906c-8.173 62.347 9.714 98.713 35.687 102.75l10.97-40.874-34.814-54.25c-3.77-2.57-7.713-5.105-11.844-7.625zm221.75 24.532c-7.053 22.243-10.817 42.77-11.657 60.532l26.406 54.594L402 349.967l-15.28-60.687h.06c-4.3-5.848-9.033-11.76-14.217-17.717zm-302.47 1.532c-8.664 74.584-8.13 147.835 12.188 220.062h19.44c-20.877-70.772-21.764-143.02-13.064-217.906l-18.562-2.156zm219.47 11.094c-6.613.16-12.953.54-19.032 1.125L215.5 313.78l-10.844 40.408c24.69 12.23 59.938-9.82 84.906-70zm206.718 36.937c-9.072.844-17.664 2.052-25.78 3.594l-51.156 32.217-14.688 36.657 59.75-22.313c11.14-13.193 22.055-30.075 31.875-50.155zm-157.31 22c-15.528 60.938-2.096 99.19 23.217 106.28l15.72-39.28-28.094-58.03c-3.43-3-7.053-5.985-10.844-8.97zM183.25 368.72c-12.674 41.233-22.26 82.547-26.844 124.436h18.813c4.507-39.722 13.69-79.23 25.905-118.97l-17.875-5.467zm270 26.655l-58 21.688-15.563 38.875c23.056 15.098 60.673-2.606 92.625-59.407-6.594-.627-12.95-1.003-19.062-1.155zM356.5 469.03c-1.874 7.713-3.185 15.757-3.656 24.126h18.687c.45-6.686 1.55-13.206 3.126-19.687l-18.156-4.44z"
          fill="currentColor" fill-opacity="1"/>
    <path id="wood"
          d="M353.86 48.45c-10.626-.16-20.45 3.456-29.14 13.253l-.193.217-50.586 50.098.628.703c3.395 3.7 3.106 9.463-.642 12.804-3.748 3.342-9.505 2.97-12.793-.825l-5.985-6.712c-.784 1.096-1.627 2.16-2.544 3.178-5.116 5.68-11.746 9.448-18.688 11.023l5.438 20.302c2.54 8.98-8.582 15.417-15.102 8.738l-41.2 40.803c1.41-.082 2.83-.135 4.26-.135 40.63 0 73.616 33.616 73.616 74.672 0 .803-.036 1.598-.06 2.395l141.94-153.74c8.252-10.316 9.687-20.888 6.985-31.832C407.08 82.4 399.6 71.29 389.653 62.967c-3.085-2.583-6.396-4.885-9.835-6.854L258.56 182.725c-3.418 3.685-9.193 3.856-12.824.38-3.63-3.478-3.71-9.255-.175-12.83l115.932-121.05c-1.843-.34-3.68-.584-5.494-.694-.715-.042-1.428-.07-2.137-.08zM232.31 85.597c-4.224-.048-8.876 1.842-12.583 5.96-6.327 7.024-5.918 16.11-.913 20.62 5.006 4.508 14.088 3.968 20.415-3.057 6.325-7.024 5.917-16.112.91-20.62-1.877-1.69-4.328-2.672-6.992-2.867-.277-.02-.556-.032-.837-.035zm-27.95 63.94c-7.19-.12-13.63 2.222-19.577 8.925l-.19.217-99.734 98.77c10.89.53 20.967 4.222 29.386 10.167 1.406-11.834 5.547-22.84 11.785-32.332l.44-.67 6.39-8.21c1.915-2.138 3.963-4.148 6.11-6.05l70.907-70.224c-1.372-.268-2.734-.453-4.07-.534-.486-.03-.968-.05-1.448-.057zm193.3 14.415c-2.226.018-4.423.188-6.588.52L245.744 321.88c-2.968 3.93-6.313 7.544-9.976 10.806l-5.715 6.19c9.9 2.162 19.137 6.16 27.34 11.628-.004-.254-.02-.505-.02-.76 0-12.38 4.545-23.756 12.03-32.496l-.087-.086 1.358-1.344c1.008-1.09 2.06-2.135 3.16-3.13L381.01 206.545c8.52-9.363 20.055-13.314 30.816-12.662 10.908.66 21.093 5.423 29.33 12.316 8.238 6.892 14.684 16.035 17.278 26.538.788 3.194 1.158 6.54 1.078 9.922 4.62-9.422 4.9-19.095 2.242-28.918-3.484-12.87-12.614-25.674-24.47-34.967v.002c-11.194-8.77-24.658-14.314-37.27-14.79-.79-.028-1.573-.04-2.354-.034zm11.926 47.852c-5.712-.106-10.696 1.69-15.463 7.064l-.193.216-82.07 81.28c22.277 2.517 40.072 20.28 43.12 42.585l82.31-89.153c4.454-5.58 5.124-10.833 3.665-16.742-1.468-5.945-5.675-12.3-11.35-17.05-5.678-4.75-12.668-7.778-18.867-8.153-.387-.024-.77-.04-1.152-.047zm-222.274 8.097c-4.898 0-9.644.647-14.167 1.85 1.964-.262 3.962-.41 5.994-.41 24.715 0 45.067 19.99 45.067 44.566 0 24.576-20.355 44.567-45.068 44.567-24.718 0-45.07-19.992-45.07-44.567 0-2.83.282-5.593.797-8.277-2.044 5.915-3.166 12.284-3.166 18.94 0 31.482 24.873 56.668 55.613 56.668s55.61-25.185 55.61-56.668c0-31.482-24.87-56.668-55.61-56.668zm-8.173 19.44c-15.12 0-27.07 11.857-27.07 26.566 0 14.71 11.945 26.567 27.07 26.567 15.117 0 27.067-11.858 27.067-26.567 0-14.71-11.944-26.566-27.068-26.566zm-3.388 7.357c8.742 0 16.023 7.276 16.023 16.02s-7.285 16.02-16.023 16.02c-8.742 0-16.025-7.275-16.025-16.02 0-8.743 7.287-16.02 16.025-16.02zm-93.61 28.68c-21.25 0-38.427 17.364-38.427 39.2 0 21.835 17.177 39.2 38.426 39.2 21.25 0 38.426-17.364 38.426-39.2 0-3.01-.338-5.933-.957-8.74-1.208-2.858-2.23-5.813-3.08-8.838-6.297-12.877-19.314-21.623-34.39-21.623zm-.36 11.016c15.59 0 27.085 14.1 27.085 29.823 0 15.724-11.498 29.82-27.086 29.82-15.59 0-27.087-14.098-27.087-29.82 0-15.727 11.5-29.824 27.088-29.824zm372.58.325c-6.907-.118-13.068 2.118-18.79 8.567l-.193.22-96.345 95.415c27.285 1.628 49.25 23.576 51.547 50.926l96.64-104.672c5.384-6.735 6.24-13.283 4.48-20.42-.234-.944-.527-1.893-.868-2.844l-63.383 66.342c-3.41 3.703-9.196 3.888-12.837.41-3.64-3.48-3.72-9.267-.175-12.844l65.103-68.144c.345-.37.72-.71 1.122-1.018-.786-.76-1.604-1.497-2.447-2.203-6.715-5.62-14.988-9.227-22.463-9.68-.467-.028-.93-.046-1.39-.054zm-372.9 14.73c-7.59 0-13.74 7.046-13.74 15.738 0 8.69 6.15 15.736 13.74 15.736s13.743-7.045 13.743-15.736c0-8.69-6.152-15.737-13.742-15.737zm224.952 16.6c-17.17 0-31.04 14.004-31.04 31.694 0 17.69 13.87 31.695 31.04 31.695s31.04-14.006 31.04-31.696-13.87-31.693-31.04-31.693zm-2.285 11.155c11.398 0 19.28 10.28 19.28 21.092 0 10.814-7.884 21.09-19.28 21.09-11.4 0-19.282-10.277-19.282-21.09 0-10.814 7.883-21.092 19.28-21.092zm-163.378 5.13l-14.027 15.192c-2.17 2.835-4.59 5.46-7.235 7.838l-3.986 4.317c9.624 5.793 17.842 13.746 24.006 23.185 6.715-14.72 17.602-27.106 31.113-35.588-11.134-2.634-21.307-7.826-29.87-14.946zm72.31 20.704c-34.83 0-63.015 28.553-63.015 64.192 0 35.64 28.186 64.194 63.016 64.194s63.017-28.554 63.017-64.194c0-35.638-28.188-64.193-63.017-64.193zM68.68 370.114C42.442 374.65 22.5 397.775 22.5 425.96c0 14.03 4.95 26.802 13.146 36.66-5.09-7.662-8.066-16.868-8.064-26.725v-.004c-.005-26.31 21.188-47.994 47.29-47.994 26.105 0 47.298 21.684 47.292 47.996.005 20.913-13.386 38.89-31.986 45.393 22.622-5.065 40.05-24.075 43.076-47.908-.792-4.6-1.207-9.324-1.207-14.145 0-2.07.077-4.125.226-6.16-4.7-20.763-20.513-37.028-40.71-42.11-3.065.528-6.21.817-9.422.817-4.64 0-9.146-.586-13.462-1.665zm140.48.643c27.187 0 49.2 22.702 49.2 50.203 0 27.503-22.016 50.204-49.2 50.204-27.187 0-49.2-22.702-49.2-50.203 0-27.5 22.017-50.202 49.2-50.202zm0 17.998c-17.21 0-31.2 14.195-31.2 32.205 0 18.012 13.983 32.206 31.2 32.206 17.212 0 31.2-14.195 31.2-32.205 0-18.01-13.982-32.204-31.2-32.204zm81.856 8.148c1.256 4.498 2.16 9.143 2.642 13.912 3.67-4.432 8.01-8.273 12.852-11.38-.032.002-.062.003-.094.003-5.38 0-10.554-.9-15.4-2.536zm-216.14 8.992c-16.2 0-29.295 13.238-29.29 29.995v.005c-.005 16.756 13.09 29.994 29.29 29.994 16.197 0 29.295-13.24 29.29-29.995v-.004c.005-16.756-13.093-29.994-29.29-29.994zm133.706.256c8.967 0 14.96 7.945 14.96 15.953 0 8.01-5.993 15.952-14.96 15.952-8.966 0-14.96-7.943-14.96-15.952 0-8.008 5.994-15.953 14.96-15.953zm127.203 2.664c-20.47 0-37.013 16.723-37.013 37.766 0 21.042 16.544 37.766 37.013 37.766 20.47 0 37.012-16.723 37.012-37.766 0-21.042-16.543-37.766-37.012-37.766zM71.833 422.39c8.965 0 14.958 7.943 14.958 15.952 0 8.01-5.992 15.953-14.958 15.953-8.966 0-14.96-7.944-14.96-15.953 0-8.01 5.994-15.953 14.96-15.953zm267.923 1.423c14.727 0 26.683 12.307 26.683 27.037 0 14.73-11.958 27.037-26.684 27.037-14.728 0-26.682-12.308-26.682-27.037 0-14.73 11.955-27.038 26.682-27.038zm0 18c-4.802 0-8.682 3.845-8.682 9.037s3.877 9.037 8.682 9.037c4.8 0 8.683-3.846 8.683-9.037 0-5.193-3.88-9.038-8.684-9.038z"
          fill="currentColor" fill-opacity="1"/>
    <path id="stone"
          d="M317.727 108.904l-95.192 96.592-26.93 86.815 17.54 36.723 20.417 9.287 33.182-55.082 11.297-3.61 61.75 26.85 20.26-12.998 4.47-43.7 11.42 53.634-10.622 14.162 3.772 1.64 5.238 6.5 6.832 34.343 55.977-66.775 13.98.23 22.397 28.575-9.453-52.244L434.01 166.81l-116.28-57.906zM123.61 120.896L94.08 173l-4.603 27.62 25.98-8.442 11.704 7.377.084.634 28.295 59.865 13.773-4.543 10.94 4.668 3.922 8.21 19.517-62.917-1.074-33.336-40.15-.522-29.732-23.78 34.06 10.888 42.49-7.727 26.034 15.88 36.282-36.815c-2.777-1.18-5.615-2.356-8.58-3.52l-79.58 10.126-3.528-.25-56.307-15.52zm249.33 36.422l47.058 66.02 2.107 62.51-25.283-59.698-65.322-60.404 41.44-8.428zm-262.2 55.32l-64.234 20.876-16.71 78.552 50.794 5.582.596-7.14 37.662-36.707-8.108-61.16zm56.688 62.45l-36.44 12.016-31.644 30.84 22.588 30.867 57.326 1.74 16.5-16.16-28.33-59.302zm110.666 24.19l-44.307 73.546-.033 57.14 97.264 12.216 44.242-19.528-17.666-88.806-79.5-34.567zM443.8 313.36l-46.843 55.876.287 1.774 65.147 13.887 25.78-14.926-44.37-56.613zm-138.382 15.89l39.23 22.842 13.41 50.658-26.82 23.838-45.015-2.553 38.562-28.242 2.483-39.23-21.85-27.312zm-238.37 53.838l-8.77 28.51 13.152 48.498 91.037-11.91 1.32-26.418-62.582-31.995-34.156-6.684z"
          fill="currentColor" fill-opacity="1"/>
    <path id="sheep"
          d="M392.8 107.5c9.3 5.3 25.8 9.3 40 9.2 7.7-.1 14.6-1.2 19.5-3.2 5-1.8 6.9-4.9 8.9-8.8-9.2-6.08-22.1-12.27-31.8-12.87-14.9.53-28.8 8.13-36.6 15.67zm-253 20.2c-1.7 5.5-7.9 8.1-13 5.4-26.5-14.5-50.46-6.9-67.71 8.7-35.93 32.6-45.13 87.3-32.47 145.7 7.31 33.6 18.99 53 41.29 62.8 0 .1.1.1.15.1 2.22 1 4.21 1.9 6.09 2.8l4.61-22c1.02-4.9 5.8-8 10.66-7s7.98 5.8 6.96 10.7l-23.5 112c4.79 7.2 16.4 1.2 21.3-1.2l38.12-106.5c10.8-9.4 21.2-19 28.7-29.2 6.6-9.1 10.4-18.4 10.6-23.5.2-5 4.4-8.9 9.4-8.7 5 .2 9 4.6 8.6 9.6-.6 11.2-6.2 22.4-14 33.2-7.3 10-16.7 19.6-27.2 27.2l-3.3 8.9c6.9 8.7 13.4 13.8 19.6 16.8 8.8 4.1 17.7 4.6 28.5 3.3 16.4-1.9 34.6-12.9 43.5-37.2 2.8-7.7 13.6-8 16.8-.5 7.7 21.2 36.1 32.6 55.1 24l-3.9-23.3c-.8-4.9 2.5-9.6 7.4-10.4 4.9-.9 9.6 2.5 10.4 7.4l17.6 105.9c9.2 6.3 14.5 2.4 19.9-4.4l-13.8-114.4c-.7-5.3 3.3-10 8.6-10.2 4.8-.2 8.8 3.3 9.3 8l4.3 35.7c5.1-1.2 9.1-2.5 12.4-5 4.3-3.2 8.5-8.7 12.1-21.5 1.7-6 9-8.5 14.1-4.7 13.6 8.3 27.4-1.8 35.6-12.2 12.9-16.5 14.7-42.4 13.2-69.2-2.1.3-4.2.5-6.3.6-8.8.5-17.9-.9-25.7-4.4-12.4-7-22-18.4-28.2-28.9-3.9-6.8-7.3-13.7-10.5-20-5.4 9.9-11 23.1-19.2 25-12.5 2.1-23.9-3.7-29.8-12.7-5.9-8.9-7.4-20.2-4.8-31.1 2.7-11.7 9.8-38.3 22.6-56.1 2.2-2.9 4.5-5.3 6.8-7.4-7.5-3.1-16.2-3.8-22.9-3.8-5.8 0-13.5 1.8-19.7 5-6.2 3.3-10.7 7.8-12.2 11.8-3.2 8.5-15.5 7.5-17.3-1.3-3.8-22.78-53.9-17.8-65.6 2-3.8 7-14.1 5.9-16.5-1.7-8.1-22.61-62.7-21.3-66.7 5.9zm345-1.5c1.7 16.4 3.5 32.2 4.2 45.6 1.8 6.5 6 18.9 8.7 7.3.9-4.1.8-11-.4-18.6-.1-7.1-14.5-47.3-12.5-34.3zm-112.7-2.5c-11.9 15-19.2 37.4-23.3 53.7-.6 5.8-.6 12.6 2.3 17.1 2.3 3.4 4.8 5.2 9.4 5 5.8-9.4 12.1-19.8 15.6-28.2-1.2-7.9-2.8-19.9-3.6-31.4-.4-5.8-.6-11.2-.4-16.2zm94.4 2.4c-2.4 1.6-4.8 3.1-7.5 4.1-7.8 3.2-16.8 4.4-26 4.5-14.8.1-30.2-2.7-42.9-8.4 0 3.6.1 7.7.4 12.3.9 12.6 3 27.2 4 33.5 10.5 16.6 19.9 44.4 36.8 52.5 5.8 2 11.9 3.1 17.2 2.9 6-.4 10.6-2.6 11.5-3.7 3.5-8 5.9-15.2 7.3-22.3 2.1-10.9 3.4-23.3 3.6-31.6.3-6.4-.6-13.3-1.1-18.7-1.4 4.1-5.7 6.6-10 5.9-4.3-.7-7.5-4.4-7.5-8.8 0-5.1 4.2-9.2 9.3-9 3 0 5.8 1.7 7.4 4.3-.9-6.1-1.4-12-2.5-17.5zm-58.3 16.5c4.9.2 8.7 4.2 8.7 9 0 5-4 9-9 9-4.9 0-9-4-9-9s4.2-9.1 9.3-9zm47.5 48.3c3.7-.1 6.5 1.9 6.5 6.2 0 7.8-5.8 15-12.7 19l-1-23.1c2.5-1.4 5-2.1 7.2-2.1zm-24.1 2c1.8-.1 3.9.4 5.8 1.3l3.8 22.5c-6-3.7-15.4-3.6-16.5-16.1-.5-5.2 2.8-7.7 6.9-7.7zm-30.9 164.2c-3.7 5.1-7.6 9.1-12.6 12.1l16.6 62c7.6 1.5 15.9 1 19.2-5.1zm-241.2 33.7l1.5 46.8c7.9 7.9 12.9 4.8 19.7-3l-3.7-39.5c-6.3-.9-12.6-2.2-17.5-4.3z"
          fill="currentColor" fill-opacity="1"/>
    <path id="cloth"
          d="M165.446 34.793c-23.17.023-45.634 12.97-54.612 36.323l-83.67 326.167c-12.673 94.537 81.04 88.742 137.957 65.396 81.422-33.396 181.723-29.213 263.244-8.26l6.45-17.218c-7.38-2.638-15.334-5.988-22.252-8.039.473-4.364.955-8.72 1.437-13.074l23.038 4.118 3.234-18.1c-8.074-1.441-16.147-2.885-24.221-4.328.615-5.403 1.238-10.799 1.87-16.189l22.134 3.278 2.693-18.186c-7.548-1.12-15.098-2.238-22.647-3.355.456-3.765.91-7.53 1.375-11.29 7.615 1.092 15.231 2.183 22.847 3.273l2.607-18.2-23.164-3.316c.46-3.593 1.29-9.988 1.76-13.577l22.781 2.55 2.045-17.57c-7.467-.834-14.935-1.671-22.402-2.508.783-5.767 1.917-11.182 2.728-16.943 7.67 1.12 15.341 2.244 23.012 3.368l2.31-17.139c-7.683-1.127-15.366-2.25-23.05-3.374.792-5.415 1.252-10.129 2.071-15.542 7.074 1.264 14.149 2.528 21.223 3.79l3.232-18.1-21.654-3.866c.736-4.676 1.473-9.35 2.23-14.026 6.978 1.673 13.955 3.347 20.932 5.022L465.276 208c-7.401-1.778-14.803-3.554-22.204-5.33a2809.25 2809.25 0 0 1 2.132-12.477c6.98 1.583 13.961 3.165 20.942 4.746l4.064-17.93c-7.271-1.65-14.543-3.298-21.815-4.946.769-4.267 1.55-8.535 2.342-12.805l20.742 5.151 4.431-17.843-21.751-5.405c.741-3.847 1.494-7.696 2.254-11.548l20.28 5.014 4.413-17.849-21.057-5.207a2444.47 2444.47 0 0 1 2.571-12.374c8.386 2.41 13.13 2.364 21.41 4.99L486 88.456c-83.808-26.776-179.25-33.22-244.192-6.453-24.337 114.036-37.305 221.4-68.032 338.64-3.407 13-14.47 21.89-27.342 28.064-27 11.608-64.033 13.778-84.63-4.91-10.971-10.34-16.174-27.036-12.467-47.579 2.303-12.762 10.883-21.986 20.834-26.378 19.749-7.074 43.492-4.25 58.893 7.95 12.463 9.302 12.318 38.283-3.882 31.82-9.639-6.17-1.964-11.851-8.615-17.378-11.6-7.428-26.42-10.872-38.972-5.57-5.564 2.455-8.887 5.737-10.166 12.822-2.94 16.29.685 24.996 6.985 30.933 18.333 13.49 45.279 10.495 64.068 1.712 10.045-4.82 16.277-11.436 17.511-16.147 30.538-116.518 43.443-224.123 68.293-339.964-11.796-28.344-35.67-41.247-58.84-41.225z"
          fill="currentColor" fill-opacity="1"/>
    <path id="brick"
          d="M233.986 85.262l-63.37 21.11L334.32 160.9l63.373-21.11-163.707-54.53zm-82.85 33.593v58.088l174.184 58.02v-58.086l-174.183-58.022zm-18 50.215l-53.71 17.89 162.63 54.175 22.417-7.467-125.18-41.7a9 9 0 0 1-6.156-8.536V169.07zm-73.19 30.375v58.088l122.286 40.733v-30.71a9 9 0 0 1 .018-.357 9 9 0 0 1 .01-.192 9 9 0 0 1 .07-.697 9 9 0 0 1 .03-.205 9 9 0 0 1 .134-.66 9 9 0 0 1 .06-.236 9 9 0 0 1 .19-.616 9 9 0 0 1 .092-.248 9 9 0 0 1 .238-.567 9 9 0 0 1 .135-.282 9 9 0 0 1 .265-.488 9 9 0 0 1 .197-.32 9 9 0 0 1 .28-.41 9 9 0 0 1 .26-.342 9 9 0 0 1 .288-.344 9 9 0 0 1 .318-.342 9 9 0 0 1 .3-.29 9 9 0 0 1 .374-.33 9 9 0 0 1 .3-.237 9 9 0 0 1 .438-.315 9 9 0 0 1 .286-.182 9 9 0 0 1 .502-.29 9 9 0 0 1 .26-.133 9 9 0 0 1 .59-.262 9 9 0 0 1 .21-.082 9 9 0 0 1 .317-.122l25.18-8.387-153.628-51.175zm364.847 27.352l-87.63 29.19a9 9 0 0 1-.247.07 9 9 0 0 1-.355.1 9 9 0 0 1-.443.1 9 9 0 0 1-.47.085 9 9 0 0 1-.4.05 9 9 0 0 1-.49.038 9 9 0 0 1-.423.007 9 9 0 0 1-.48-.01 9 9 0 0 1-.397-.03 9 9 0 0 1-.504-.06 9 9 0 0 1-.38-.07 9 9 0 0 1-.52-.117 9 9 0 0 1-.31-.087 9 9 0 0 1-.268-.077l-38.526-12.834-73.23 24.395 63.368 21.11 163.707-54.532-22.002-7.328zm-224.56 53.242v58.085l73.85 24.602v-36.225l.005.002V304.63l-2.752-.915-.014.004-71.09-23.68zm-85.174 14.82L58.57 313.68l63.373 21.11 56.485-18.817-63.37-21.11zM39.095 326.17v58.088l73.85 24.6v-58.088l-73.85-24.6zm390.207 9.816l-63.375 21.112 36.283 12.086 63.374-21.112-36.28-12.086zM219.03 363.36v21.86l174.183 58.022v-58.088L337.45 366.58l-51.516 17.162a9 9 0 0 1-.19.053 9 9 0 0 1-.467.133 9 9 0 0 1-.332.074 9 9 0 0 1-.588.107 9 9 0 0 1-.253.03 9 9 0 0 1-.674.053 9 9 0 0 1-.196.004 9 9 0 0 1-.693-.013 9 9 0 0 1-.206-.016 9 9 0 0 1-.723-.09 9 9 0 0 1-.122-.02 9 9 0 0 1-.795-.18 9 9 0 0 1-.025-.007 9 9 0 0 1-.432-.122l-61.207-20.39z"
          fill="currentColor" fill-opacity="1"/>
    <path id="dice"
          d="M255.76 44.764c-6.176 0-12.353 1.384-17.137 4.152L85.87 137.276c-9.57 5.536-9.57 14.29 0 19.826l152.753 88.36c9.57 5.536 24.703 5.536 34.272 0l152.753-88.36c9.57-5.535 9.57-14.29 0-19.825l-152.753-88.36c-4.785-2.77-10.96-4.153-17.135-4.153zm1.86 12.423a31.953 18.96 0 0 1 21.194 5.536 31.953 18.96 0 0 1-45.187 26.812 31.953 18.96 0 0 1 23.992-32.347zm-119.173 70.188a31.953 18.96 0 0 1 .002 0 31.953 18.96 0 0 1 21.195 5.535 31.953 18.96 0 0 1-45.19 26.813 31.953 18.96 0 0 1 23.992-32.348zm237.903.26a31.953 18.96 0 0 1 .002 0 31.953 18.96 0 0 1 21.195 5.535 31.953 18.96 0 0 1-45.19 26.812 31.953 18.96 0 0 1 23.993-32.347zM75.67 173.84c-5.753-.155-9.664 4.336-9.664 12.28v157.696c0 11.052 7.57 24.163 17.14 29.69l146.93 84.848c9.57 5.526 17.14 1.156 17.14-9.895V290.76c0-11.052-7.57-24.16-17.14-29.688l-146.93-84.847c-2.69-1.555-5.225-2.327-7.476-2.387zm360.773.002c-2.25.06-4.783.83-7.474 2.385l-146.935 84.847c-9.57 5.527-17.14 18.638-17.14 29.69v157.7c0 11.05 7.57 15.418 17.14 9.89L428.97 373.51c9.57-5.527 17.137-18.636 17.137-29.688v-157.7c0-7.942-3.91-12.432-9.664-12.278zM89.297 195.77a31.236 18.008 58.094 0 1 33.818 41.183 31.236 18.008 58.094 1 1-45-25.98 31.236 18.008 58.094 0 1 11.182-15.203zm333.52 0A18.008 31.236 31.906 0 1 434 210.973a18.008 31.236 31.906 0 1-45 25.98 18.008 31.236 31.906 0 1 33.818-41.183zm-165.198 2.314a31.953 18.96 0 0 1 21.194 5.535 31.953 18.96 0 0 1-45.187 26.812 31.953 18.96 0 0 1 23.992-32.348zM89.296 256.77a31.236 18.008 58.094 0 1 33.818 41.183 31.236 18.008 58.094 1 1-45-25.98 31.236 18.008 58.094 0 1 11.182-15.202zm112 3.664a31.236 18.008 58.094 0 1 33.818 41.183 31.236 18.008 58.094 1 1-45-25.98 31.236 18.008 58.094 0 1 11.182-15.203zm109.52 0A18.008 31.236 31.906 0 1 322 275.637a18.008 31.236 31.906 0 1-45 25.98 18.008 31.236 31.906 0 1 33.818-41.183zM366.82 289.1a18.008 31.236 31.906 0 1 .002 0 18.008 31.236 31.906 0 1 11.18 15.203 18.008 31.236 31.906 0 1-45 25.98A18.008 31.236 31.906 0 1 366.82 289.1zM89.297 318.48a31.236 18.008 58.094 0 1 33.818 41.184 31.236 18.008 58.094 1 1-45-25.98 31.236 18.008 58.094 0 1 11.182-15.204zm333.52 0A18.008 31.236 31.906 0 1 434 333.684a18.008 31.236 31.906 0 1-45 25.98 18.008 31.236 31.906 0 1 33.818-41.184zm-221.52 2.954a31.236 18.008 58.094 0 1 33.818 41.183 31.236 18.008 58.094 1 1-45-25.98 31.236 18.008 58.094 0 1 11.182-15.203zm0 61.71a31.236 18.008 58.094 0 1 33.818 41.182 31.236 18.008 58.094 1 1-45-25.98 31.236 18.008 58.094 0 1 11.182-15.203zm109.52 0A18.008 31.236 31.906 0 1 322 398.345a18.008 31.236 31.906 0 1-45 25.98 18.008 31.236 31.906 0 1 33.818-41.183z"
          fill="currentColor" fill-opacity="1"/>
    <path id="rolling-dices"
          d="M138.798 35.342L28.73 114.268l95.777 29.095 111.305-87.09-97.014-20.93zm112.986 31.082l-118.047 89.96 51.07 131.102 8.534-7.455 4.23-15.708a18.338 13.102 76.863 0 1-9.08-20.45 18.338 13.102 76.863 0 1 10.997-13.727 18.338 13.102 76.863 0 1 3.62.53 18.338 13.102 76.863 0 1 3.113 1.544l7.94-29.48a9 9 0 0 1 .353-1.04 9 9 0 0 1 .058-.128 9 9 0 0 1 .32-.685 9 9 0 0 1 .09-.153 9 9 0 0 1 .37-.625 9 9 0 0 1 .534-.723 9 9 0 0 1 .066-.074 9 9 0 0 1 .54-.594 9 9 0 0 1 .65-.593 9 9 0 0 1 .004-.002 9 9 0 0 1 .46-.342 9 9 0 0 1 .266-.197 9 9 0 0 1 .502-.3 9 9 0 0 1 .27-.157 9 9 0 0 1 .44-.208 9 9 0 0 1 .38-.178 9 9 0 0 1 .437-.152 9 9 0 0 1 .41-.143 9 9 0 0 1 .404-.1 9 9 0 0 1 .47-.114 9 9 0 0 1 .51-.07 9 9 0 0 1 .37-.05 9 9 0 0 1 .01 0 9 9 0 0 1 .01-.003l33.624-2.873a18.338 13.102 76.863 0 1 10.326-9.777 18.338 13.102 76.863 0 1 3.622.53 18.338 13.102 76.863 0 1 8.527 7.327l13.043-1.113-39.442-123.783zM137.25 74.03a9.8 19.77 77.916 0 1 12.798 8.734 9.8 19.77 77.916 0 1-21.938 11.998 9.8 19.77 77.916 0 1-16.57-8.602 9.8 19.77 77.916 0 1 21.938-12 9.8 19.77 77.916 0 1 3.77-.13zm100.228 23.517a18.338 13.102 76.863 0 1 .002 0 18.338 13.102 76.863 0 1 3.62.53 18.338 13.102 76.863 0 1 12.112 21.94 18.338 13.102 76.863 0 1-14.617 13.196 18.338 13.102 76.863 0 1-12.114-21.94 18.338 13.102 76.863 0 1 10.998-13.726zM24.22 131.71l46.992 114.124 94.236 40.38-45.988-125.57-95.24-28.935zm147.886 17.43a18.338 13.102 76.863 0 1 3.622.528 18.338 13.102 76.863 0 1 12.11 21.94 18.338 13.102 76.863 0 1-14.616 13.197 18.338 13.102 76.863 0 1-12.112-21.94 18.338 13.102 76.863 0 1 10.996-13.726zm-75.123 13.016a19.454 9.134 59.254 0 1 16.955 15.078 19.454 9.134 59.254 0 1-.425 19.485A19.454 9.134 59.254 0 1 95.6 181.78a19.454 9.134 59.254 0 1 .424-19.48 19.454 9.134 59.254 0 1 .96-.144zm263.393 40.21l-112.102 9.577 113.762 79.926 113.598-16.956-115.258-72.55zM70.82 212.022A19.454 9.134 59.254 0 1 87.777 227.1a19.454 9.134 59.254 0 1-.425 19.484 19.454 9.134 59.254 0 1-17.913-14.938 19.454 9.134 59.254 0 1 .425-19.482 19.454 9.134 59.254 0 1 .96-.14zm157.378 7.813L186.66 374.023l115.616 99.454 47.147-168.47-121.225-85.17zm126.987 11.168a21.76 8.898 15.267 0 1 19.693 4.783 21.76 8.898 15.267 0 1 7.607 14.244 21.76 8.898 15.267 0 1-28.886-3.182 21.76 8.898 15.267 0 1-7.61-14.244 21.76 8.898 15.267 0 1 9.195-1.6zM487.78 291.3L366.9 309.343l-46.823 167.316 116.297-31.77L487.78 291.3zm-181.808 10.8a25.834 15.573 84.277 0 1 4.238.943 25.834 15.573 84.277 0 1 12.873 31.72 25.834 15.573 84.277 0 1-18.105 17.893 25.834 15.573 84.277 0 1-12.874-31.72 25.834 15.573 84.277 0 1 13.868-18.836zm154.086 11.636a13.237 21.96 28.62 0 1 7.673 4.13 13.237 21.96 28.62 0 1-6.176 28.435 13.237 21.96 28.62 0 1-21.287 3.878 13.237 21.96 28.62 0 1 6.175-28.434 13.237 21.96 28.62 0 1 13.616-8.008zM391.362 324.4a13.237 21.96 28.62 0 1 7.672 4.13 13.237 21.96 28.62 0 1-6.176 28.435 13.237 21.96 28.62 0 1-21.287 3.877 13.237 21.96 28.62 0 1 6.177-28.434 13.237 21.96 28.62 0 1 13.615-8.008zm-173.996 13.305a25.834 15.573 84.277 0 1 4.24.945 25.834 15.573 84.277 0 1 12.872 31.72 25.834 15.573 84.277 0 1-18.106 17.894 25.834 15.573 84.277 0 1-12.873-31.72 25.834 15.573 84.277 0 1 13.866-18.84zm212.278 60.87a13.237 21.96 28.62 0 1 7.67 4.13 13.237 21.96 28.62 0 1-6.174 28.434 13.237 21.96 28.62 0 1-21.287 3.876 13.237 21.96 28.62 0 1 6.175-28.434 13.237 21.96 28.62 0 1 13.616-8.008zm-70.332 19.488a13.237 21.96 28.62 0 1 7.67 4.132 13.237 21.96 28.62 0 1-6.174 28.434 13.237 21.96 28.62 0 1-21.287 3.874 13.237 21.96 28.62 0 1 6.176-28.434 13.237 21.96 28.62 0 1 13.616-8.007z"
          fill="currentColor" fill-opacity="1"/>
    <path id="army" d="M164.594 21.625c-.537.012-1.068.028-1.563.094-29.656 3.852-52.56 35.847-52.56 74.75 0 21.55 7.307 41.193 18.686 54.905-61.678 11.594-66.563 115.158-66.562 188.063h43.218l11.094 152.437h63.063L168.905 340.03h21.47l11.343 152.158h108.686l10.03-152.157h21.627l-9.907 151.845h63.063l10.53-152.438h40.28c0-73.107 1.407-178.78-65.967-189.218 10.89-13.646 18.093-32.734 18.093-53.75 0-41.496-26.52-74.75-59-74.75-2.03 0-4.43-.263-6.406 0-9.4 1.22-17.562 5.455-25.125 11.686 16.388 13.303 27.468 36.433 27.47 63.063 0 21.016-7.236 40.104-18.126 53.75 67.373 10.438 66 116.11 66 189.218h-21.94c.008-73.086 1.29-178.215-65.905-188.625 10.89-13.647 17.906-32.61 17.906-53.625 0-41.497-26.457-75-58.936-75-2.03 0-4.117-.262-6.094 0-29.657 3.85-52.813 36.095-52.813 75 0 21.547 7.373 40.788 18.75 54.5-61.514 11.563-66.318 114.874-66.343 187.75H126.25c-.002-72.905 4.322-176.47 66-188.063-11.38-13.712-18.687-33.356-18.688-54.906 0-26.575 11.138-49.632 27.438-63.064-9.148-7.425-19.896-11.687-31.53-11.687-1.525 0-3.267-.132-4.876-.095z"
              fill="currentColor" fill-opacity="1"/>
    <path id="logn-road" d="M129.8 19.64 64.66 113.4H32v18h272.8c12.3 23.5 21.4 40.3 28.1 68.3-118 19.8-137.8 26.8-247.03 65.1C126.4 344.9 167 425 232.8 492.4l246.2-.3c-87.1-63.9-203.5-127.6-260.1-201.3 64.2-33.7 98.8-49.9 155.5-74.6-11.5-28.8-30.3-59.7-53.9-84.8H480v-18H251.2l-54.5-67.85-35.6 23.16z"
              fill="currentColor" fill-opacity="1"/>
    <path id="exchange" d="M258.148 20.822c-1.112.008-2.226.026-3.343.055-39.32 1.041-81.507 15.972-123.785 50.404l-6.028 4.91-5.732-5.25c-12.644-11.578-20.276-27.633-25.653-43.716-8.974 36.98-14.631 81.385-9.232 114.523 18.065.908 45.409-2.177 73.7-7.818 17.858-3.561 36.048-8.126 53.064-13.072-13.419-2.911-25.896-6.882-38.143-12.082l-16.088-6.832 14.906-9.127c46.367-28.393 80.964-40.686 120.235-35.553 33.105 4.327 69.357 20.867 119.066 47.271-25.373-36.314-62.243-64.737-104.728-76.994-15.402-4.443-31.553-6.828-48.239-6.719zM346 116c-46.667 0-46.666 0-46.666 46.666V349.4c0 9.596.007 17.19.414 23.242a664.804 664.804 0 0 1 50.656-12.223c24.649-4.915 48.367-8.224 67.916-8.41 6.517-.062 12.571.224 18.041.912l6.31.793 1.358 6.213c2.464 11.265 3.673 23.447 3.914 36.059 38.032-.19 38.057-3.06 38.057-46.65V162.665C486 116 486 116 439.334 116a226.98 226.98 0 0 1 3.978 7.64l12.624 25.536-25.004-13.648c-13.085-7.143-25.164-13.632-36.452-19.528zm-281.943.016c-38.032.19-38.057 3.06-38.057 46.65V349.4C26 396 26 396 72.666 396a226.98 226.98 0 0 1-3.978-7.64l-12.624-25.536 25.004 13.649c13.085 7.142 25.164 13.632 36.452 19.527H166c46.667 0 46.666 0 46.666-46.666V162.666c0-9.626-.006-17.24-.416-23.304a664.811 664.811 0 0 1-50.654 12.22c-32.865 6.554-64.077 10.25-85.957 7.498l-6.31-.793-1.358-6.213c-2.464-11.265-3.673-23.446-3.914-36.058zm354.619 254.078c-17.543.25-40.826 3.206-64.75 7.977-17.859 3.56-36.05 8.125-53.065 13.072 13.419 2.91 25.896 6.881 38.143 12.082l16.088 6.832-14.906 9.127c-46.367 28.392-80.964 40.685-120.235 35.553-33.105-4.327-69.357-20.868-119.066-47.272 25.373 36.315 62.243 64.738 104.728 76.994 52.573 15.166 113.872 6.343 175.367-43.74l6.028-4.91 5.732 5.25c12.644 11.579 20.276 27.633 25.653 43.717 8.974-36.981 14.631-81.386 9.232-114.524-2.788-.14-5.748-.204-8.95-.158z"
              fill="currentColor" fill-opacity="1" />
    <path id="bandit" d="M127.4 14.4c-74.28 104.4-5.3 124.5 37.5 148.1 7.4-16.1 15.9-30.7 27.3-44.4-52-22.1-61.4-70.2-64.8-103.7zm257.2 0c-3.4 33.5-12.8 81.6-64.8 103.7 11.4 13.7 19.9 28.3 27.3 44.4 42.9-23.6 111.7-43.7 37.5-148.1zM256 89.5c-45.3 27.6-62.3 54.4-78.4 94.8 47.9 11.7 108.8 11.7 156.8 0-16.1-40.4-33.1-67.2-78.4-94.8zM148.8 196.1c-5.3 10.3-24.6 74.7-24.8 91.8 4.7-4.9 9.5-9.9 14.2-14.9l6.6 5.8c1.1-25.6 12.6-52.8 25.1-77.5-6.5-1.6-14.5-3.3-21.1-5.2zm214.4 0c-6.2 1.7-15.3 3.9-21.1 5.2 12.4 24.7 24 51.9 25 77.5l6.7-5.8 14.2 14.9c10.5-12.4-19.5-81.5-24.8-91.8zm-173.6 8.8l-7.9 23.8c22.8 6.5 43.6 12.6 69 20l-6.5 17c-5.6-1.6-11.4-3.2-17.1-4.9-2.9 5.8-9.5 9.6-16.7 9.6-10.2 0-18.3-7.2-18.3-16 0-1.3.1-2.5.4-3.7l-16.6-4.7-13.9 41.7 36.1 34.3 14.6-27h86.5l14.7 27 36.1-34.3-13.9-41.7c-5.4 1.5-10.8 3-16.1 4.6.4 1.2.5 2.5.5 3.8 0 8.8-8.1 16-18.4 16-7.3 0-13.9-3.9-16.8-9.7-5.9 1.7-11.7 3.3-17.5 5l-6.6-17c23.2-6.8 44.4-12.9 69.1-20l-8-23.8c-47.7 11.1-84.9 11.1-132.7 0zm-43.2 94.8l-70.42 73.7h47.42l-18.4 48h57.5L147.8 447l37.5-10.9 70.7 61.5 70.7-61.5 37.4 10.9-14.7-25.6h57.5l-18.3-48H436l-70.5-73.7-57.4 49.9-21.9-38.2h-60.7l-21.9 38.2zm91.2 25.7h36.8v18h-36.8z"
              fill="currentColor" fill-opacity="1"/>
    <path id="card-pack" d="m 321.87399,232.80853 c -10.14144,-2.86954 -20.28287,-1.59196 -30.4243,0.81494 L 88.054,306.905 c -10.983,5.203 -10.69,12.999 0.66,17.354 l 121.242,46.617 v 0.006 c 11.35,4.368 29.494,3.66 40.477,-1.535 l 166.992,-79.196 c 10.985,-5.194 10.68,-12.996 -0.664,-17.353 z M 421.969,303.885 256.576,382.325 c -14.544,6.88 -36.751,7.734 -51.775,1.958 L 83.81,337.76 c -6.4,4.962 -4.722,11.122 4.902,14.812 l 121.242,46.625 h 0.002 c 11.349,4.363 29.494,3.663 40.477,-1.533 l 166.992,-79.193 c 8.922,-4.218 10.398,-10.162 4.543,-14.586 z m 0,28.318 -165.393,78.44 c -14.544,6.874 -36.751,7.729 -51.775,1.959 L 83.81,366.078 c -6.4,4.963 -4.722,11.125 4.902,14.815 l 121.242,46.625 h 0.002 c 11.349,4.362 29.494,3.66 40.477,-1.534 l 166.992,-79.2 c 8.922,-4.22 10.398,-10.165 4.543,-14.58 z m -0.002,28.32 -165.393,78.434 c -14.544,6.88 -36.75,7.735 -51.773,1.959 L 83.81,394.4 c -6.4,4.96 -4.721,11.119 4.902,14.809 l 121.242,46.623 v -0.002 c 11.35,4.37 29.494,3.663 40.477,-1.533 l 166.994,-79.193 c 8.922,-4.22 10.396,-10.164 4.54,-14.58 z m -3.871,30.153 -161.522,76.6 c -14.544,6.88 -36.75,7.737 -51.773,1.96 L 87.924,424.293 c -10.853,5.201 -10.52,12.949 0.789,17.289 l 121.24,46.62 h 0.002 c 11.35,4.366 29.492,3.66 40.475,-1.534 l 166.996,-79.193 c 10.534,-4.98 10.684,-12.363 0.67,-16.8 z"
       fill="currentColor" fill-opacity="1"/>
</svg>
